# xmcd CD database file
#
# Track frame offsets:
#	150
#	18000
#	34050
#
# Disc length: 686 seconds
#
# Revision: 0
# Processed by: cddbd v1.5PL3 Copyright (c) Steve Scherf et al.
# Submitted via: CDex 1.50beta9
#
DISCID=1502ac03
DTITLE=篠原ともえ - やる気センセーション
DYEAR=1996
DGENRE=J-POP
TTITLE0=やる気センセーション
TTITLE1=忘れちゃうモン
TTITLE2=やる気センセーション　カラオケ
EXTD=YEAR: 1996
EXTT0=
EXTT1=
EXTT2=
PLAYORDER=
